# xmcd
#
# Track frame offsets:
#	183
#	19533
#	30205
#	44313
#	58380
#	73265
#	93738
#	104148
#	116860
#	140185
#	151980
#	162335
#	180358
#	209605
#	229660
#	248163
#	262678
#	282300
#	306713
#	333140
#
# Disc length: 4681 seconds
# Revision: 1
# Processed by: cddbd v1.5.2PL0 Copyright (c) Steve Scherf et al.
# Submitted via: dBpowerAMP V12.0
#
DISCID=2a124714
DTITLE=Duke Robillard and The Pleasure Kings - Too Hot to Handle [dBP-S]
DYEAR=1983
DGENRE=Blues
TTITLE0=Let Me Love You
TTITLE1=Baby Please Come Home
TTITLE2=My Plea
TTITLE3=It's My Own Business
TTITLE4=Tore Up
TTITLE5=If This Is Love
TTITLE6=Oh Babe
TTITLE7=What That Means To Me
TTITLE8=Just Kiss Me
TTITLE9=One More Time
TTITLE10=Someone
TTITLE11=Anything It Takes
TTITLE12=Duke's Mood
TTITLE13=Too Hot To Handle
TTITLE14=Give Me Your Attention
TTITLE15=She Made My Mind
TTITLE16=She's Sweet
TTITLE17=T-Bone Boogie
TTITLE18=Rockin' Blues
TTITLE19=Give Me All The Love You Got
EXTD=
EXTT0=
EXTT1=
EXTT2=
EXTT3=
EXTT4=
EXTT5=
EXTT6=
EXTT7=
EXTT8=
EXTT9=
EXTT10=
EXTT11=
EXTT12=
EXTT13=
EXTT14=
EXTT15=
EXTT16=
EXTT17=
EXTT18=
EXTT19=
PLAYORDER=
